<?xml version="1.0" encoding="UTF-8"?>
<svg width="130px" height="130px" viewBox="0 0 130 130" version="1.1" xmlns="http://www.w3.org/2000/svg" xmlns:xlink="http://www.w3.org/1999/xlink">
    <!-- Generator: Sketch 59.1 (86144) - https://sketch.com -->
    <title>github-corner</title>
    <desc>Created with Sketch.</desc>
    <g id="Page-1" stroke="none" stroke-width="1" fill-rule="evenodd">
        <g id="Desktop-HD" transform="translate(-1278.000000, -32.000000)" fill-rule="nonzero">
            <g id="Group" transform="translate(1278.000000, 32.000000)">
                <path d="M130,0 L130,130 L72.48,72.48 L72.4582043,69.1684211 L77.7708978,64.3284211 C79.5417957,62.5684211 79.9845201,60.8084211 79.9845201,59.4884211 L80.3717427,59.7643272 C85.1813204,63.1406648 91.2390419,65.4631579 98.1362229,58.6084211 C100.349845,56.4084211 101.235294,54.2084211 101.235294,51.5684211 C102.120743,51.5684211 104.334365,50.2484211 106.105263,46.7284211 L106.006295,46.6196897 C105.604845,46.2165966 103.858846,44.7728655 98.5789474,43.6484211 C97.6934985,41.8884211 96.3653251,40.1284211 94.5944272,38.3684211 C92.8235294,36.6084211 91.0526316,35.2884211 89.2817337,34.4084211 C88.3962848,28.6884211 86.1826625,27.3684211 86.1826625,27.3684211 C82.1981424,29.1284211 81.3126935,31.3284211 80.869969,32.2084211 C78.2136223,32.2084211 76,33.0884211 73.7863777,35.2884211 C66.5365768,42.4936078 69.1457573,48.0657428 72.5128526,52.791353 L72.9009288,53.3284211 C72.0745098,53.3284211 70.8624286,53.7117099 69.6246366,54.4782877 L69.3591331,54.6484211 L68.3797461,55.6217931 C66.6949077,54.5934224 65.0361831,52.6165762 65.884338,49.5347681 L66.0240697,49.0620583 C66.1916721,48.4245466 66.5771577,46.35977 65.1692975,44.5328709 L64.958409,44.2788003 C64.640487,43.9302346 63.2597973,42.5388366 63.579536,45.043162 L63.6075318,45.2435695 C63.6075318,45.2435695 64.0510229,46.9220907 62.787745,49.8722188 L62.6572929,50.1638532 C62.5168775,50.3970828 60.3534641,54.1862223 65.6803312,57.8640177 L65.9439684,58.0418733 L63.369,60.6 L60.6,60.6 L0,0 L130,0 Z" id="github-corner"></path>
            </g>
        </g>
    </g>
</svg>