<?xml version="1.0" encoding="UTF-8"?>
<svg width="715px" height="170px" viewBox="0 0 715 170" version="1.1" xmlns="http://www.w3.org/2000/svg" xmlns:xlink="http://www.w3.org/1999/xlink">
    <!-- Generator: Sketch 61 (89581) - https://sketch.com -->
    <title>shipshape_invert</title>
    <desc>Created with Sketch.</desc>
    <g id="shipshape_invert" stroke="none" stroke-width="1" fill="none" fill-rule="evenodd">
        <path d="M50.955,1.34177391e-13 C60.605,-0.295 70.195,1.465 79.08,5.175 C85.955,8.165 91.775,13.165 95.78,19.49 C99.825,26.445 101.955,34.335 101.955,42.385 C102.03,50.02 101.075,57.635 99.12,65.02 C96.915,73.85 93.865,82.44 90,90.685 C90.545,92.265 91.21,93.83 91.99,95.33 C94.375,101.485 94.61,108.26 92.655,114.57 C91.875,116.56 90.295,118.125 88.28,118.865 C86.775,119.415 85.155,119.415 83.67,118.865 C83.635,119.475 83.635,120.08 83.67,120.685 C85.275,120.51 86.915,120.94 88.24,121.875 C90.625,123.69 92.365,126.23 93.185,129.12 C94.14,131.955 94.455,134.96 94.12,137.93 C93.71,142.265 91.17,146.115 87.345,148.205 C89.275,153.38 87.91,159.2 83.885,162.97 C80.955,166.055 76.895,167.795 72.635,167.775 C70.35,167.775 68.085,167.305 65.995,166.385 C60.215,163.65 55.8,158.67 53.77,152.58 C52.19,148.455 51.15,144.12 50.705,139.725 C50.295,144.14 49.295,148.475 47.735,152.615 C45.8,158.69 41.465,163.69 35.74,166.465 C29.745,169.12 22.715,167.735 18.185,162.97 C14.2,159.24 12.735,153.535 14.435,148.36 C10.41,146.33 7.695,142.385 7.265,137.89 C6.955,134.92 7.245,131.915 8.185,129.08 C9.005,126.19 10.74,123.65 13.125,121.835 C14.475,120.9 16.115,120.47 17.735,120.645 L17.735,120.645 L17.735,118.83 C16.23,119.375 14.59,119.375 13.085,118.83 C11.095,118.085 9.51,116.525 8.73,114.53 C6.76,108.225 6.975,101.445 9.375,95.295 C10.195,93.38 10.84,91.385 11.33,89.355 C5.43,76.425 -7.87,41.7 6.365,19.2 C14.395,6.445 29.395,1.34177391e-13 50.955,1.34177391e-13 Z M50.955,6.405 C-18.185,6.405 12.345,76.58 18.065,88.42 C17.46,91.6 16.525,94.705 15.255,97.695 C12.97,102.97 13.69,112.245 15.255,112.695 C16.835,113.145 16.835,104.26 20.585,97.695 C21.095,96.835 21.56,95.94 21.975,95.02 C21.115,100.47 20.47,108.3 23.24,112.795 C26.505,118.42 20.51,136.58 18.75,136.795 C16.23,137.17 18.75,125.51 16.62,126.935 C13.42,129.12 10.92,140.255 17.775,142.695 C24.045,144.785 35.43,126.815 31.915,112.695 C30,107.07 33.635,95.02 34.725,90.195 C32.735,101.505 32.735,113.065 34.725,124.395 C38.24,146.545 31.17,153.42 28.865,152.56 C25.645,151.465 27.83,145.06 27.83,145.06 C26.25,142.5 15,150.685 22.58,158.81 C29.315,165.94 46.27,161.365 44.315,125.705 C43.615,115.43 45.8,105.175 50.625,96.075 C55.155,105.255 57.205,115.47 56.545,125.705 C54.63,161.365 72.385,165.94 79.045,158.81 C86.74,150.975 74.765,142.755 73.32,145.35 C73.32,146.135 75.235,151.58 72.03,152.85 C69.705,153.75 62.615,145.92 66.15,123.75 C68.01,112.715 68.085,101.445 66.33,90.37 C67.345,95.1 70.645,107.13 68.77,112.87 C65.255,127.13 76.955,145.08 83.205,142.87 C90.08,140.43 87.52,129.295 84.375,127.13 C82.245,125.74 84.705,137.365 82.245,136.99 C80.47,136.76 74.475,118.615 77.735,112.99 C80.51,108.495 79.885,100.645 78.985,95.215 C79.395,96.135 79.885,97.01 80.39,97.87 C84.295,104.51 84.14,113.515 85.685,112.87 C87.225,112.245 87.97,103.085 85.685,97.87 C84.63,95.33 83.81,92.695 83.205,90 L83.205,90 L83.28,90 C86.25,83.925 123.75,6.405 50.955,6.405 Z M20.135,75.49 C20.135,69.475 27.4,66.465 31.66,70.725 C35.92,74.96 32.91,82.245 26.895,82.245 C23.165,82.225 20.155,79.2 20.135,75.49 Z M74.51,82.170068 C83.515,82.11 83.44,68.615 74.435,68.67 C65.43,68.71 65.51,82.205 74.51,82.170068 Z" id="icon" fill="#FFFFFF"></path>
        <path d="M224.51,102.265 C224.51,119.51 208.455,126.405 192.42,126.525 C179.96,126.525 168.025,121.465 159.375,112.5 L168.185,103.73 C174.18,110.995 182.99,115.35 192.42,115.725 C202.755,115.725 211.17,111.975 211.17,103.24 C211.17,95.51 202.95,92.285 188.925,86.365 C177.385,81.485 163.575,75.685 163.575,60.565 C163.575,48.67 174.825,36.31 193.575,36.31 C205.8,36.17 217.46,41.445 225.45,50.705 L216.64,59.14 C210.45,51.915 201.545,47.615 192.03,47.245 C183.945,47.245 177.03,51.76 177.03,59.355 C177.03,70.08 189.415,73.985 198.67,77.655 C210.975,82.5 224.51,88.73 224.51,102.265 Z" id="s" fill="#FFFFFF"></path>
        <path d="M273.985,125.92 L273.985,92.735 C273.985,80.86 269.22,75.525 258.985,75.525 C248.73,75.525 243.985,80.86 243.985,92.735 L243.985,125.92 L232.01,125.92 L232.01,33.185 L244.275,33.185 L244.275,75 C249.2,68.595 256.99,65.06 265.06,65.585 C277.42,65.585 286.095,72.265 286.095,89.14 L286.095,125.995 L273.985,125.92 Z" id="h" fill="#FFFFFF"></path>
        <path d="M307.5,66.115 L307.5,126.115 L295.115,125.92 L295.115,66.115 L307.5,66.115 Z M307.87,44.59 C307.97,48.32 304.94,51.405 301.19,51.365 C295.115,51.485 291.99,44.16 296.25,39.825 C300.51,35.51 307.87,38.515 307.87,44.59 Z" id="i" fill="#FFFFFF"></path>
        <path d="M347.44,65.5099062 C364.08,65.5099062 375.86,76.76 375.86,95.955 C375.86,114.045 364.08,126.525 347.44,126.525 C340.115,126.485 333.185,123.26 328.42,117.715 L328.42,147.715 L316.17,147.715 L316.17,66.115 L328.42,66.115 L328.42,74.22 C333.185,68.67 340.135,65.49 347.44,65.5099062 Z M346.17,75.525 C334.885,75.525 328.42,84.08 328.42,95.955 C328.42,107.97 334.725,116.405 346.015,116.405 C357.305,116.405 363.75,107.97 363.75,95.955 C363.75,83.965 357.44,75.525 346.17,75.525 Z" id="p" fill="#FFFFFF"></path>
        <path d="M465.78,102.265 C465.78,119.51 449.745,126.405 433.69,126.525 C421.21,126.525 409.275,121.465 400.605,112.5 L409.435,103.73 C415.43,110.995 424.26,115.37 433.69,115.725 C444.005,115.725 452.44,111.975 452.44,103.24 C452.44,95.51 444.22,92.285 430.195,86.365 C418.65,81.485 404.885,75.685 404.885,60.565 C404.885,48.67 416.135,36.31 434.705,36.31 C446.935,36.17 458.595,41.445 466.58,50.705 L457.755,59.14 C451.58,51.915 442.655,47.615 433.165,47.245 C425.1,47.245 418.165,51.76 418.165,59.355 C418.165,70.08 430.545,73.985 439.805,77.655 C452.205,82.5 465.78,88.73 465.78,102.265 Z" id="s" fill="#FFFFFF"></path>
        <path d="M515.215,125.92 L515.215,92.735 C515.215,80.86 510.49,75.525 500.215,75.525 C489.94,75.525 485.215,80.86 485.215,92.735 L485.215,125.92 L473.24,125.92 L473.24,33.185 L485.51,33.185 L485.51,75 C490.41,68.595 498.185,65.04 506.25,65.51 C518.595,65.51 527.285,72.19 527.285,89.06 L527.285,125.92 L515.215,125.92 Z" id="h" fill="#FFFFFF"></path>
        <path d="M561.935,65.51 C575.955,65.51 583.36,72.89 583.36,89.18 L583.36,125.92 L571.095,125.92 L571.095,119.51 C566.815,125.33 559.2,126.525 553.28,126.525 C542.205,126.525 533.4,120.33 533.4,108.67 C533.4,95.255 544.355,88.83 560.39,88.83 L571.095,88.83 C571.095,81.68 568.615,75.525 560.88,75.525 C555.49,75.585 550.31,77.735 546.485,81.56 L538.77,75.74 C544.805,69.375 553.165,65.685 561.935,65.51 Z M571.095,99.745 L562.05,99.745 C549.825,99.745 545.665,102.6 545.665,108.065 C545.665,113.555 550.645,116.505 556.135,116.505 C567.635,116.505 571.135,111.64 571.135,105.255 L571.095,99.745 Z" id="a" fill="#FFFFFF"></path>
        <path d="M622.755,65.5099062 C639.415,65.5099062 651.19,76.76 651.19,95.955 C651.19,114.045 639.415,126.525 622.755,126.525 C615.45,126.485 608.515,123.26 603.75,117.715 L603.75,147.715 L591.525,147.715 L591.525,66.115 L603.75,66.115 L603.75,74.22 C608.515,68.67 615.45,65.49 622.755,65.5099062 Z M621.33,75.525 C610.02,75.525 603.75,84.08 603.75,95.955 C603.75,107.97 610.06,116.405 621.33,116.405 C632.615,116.405 638.965,107.97 638.965,95.955 C638.965,83.965 632.655,75.525 621.33,75.525 Z" id="p" fill="#FFFFFF"></path>
        <path d="M684.375,65.33 C701.365,65.33 712.695,78.3 712.695,95.33 L712.695,100.8 L666.895,100.955 C666.895,110.585 675.605,116.505 684.375,116.505 C690.955,116.445 697.265,113.73 701.855,109.005 L709.12,115.76 C702.775,122.695 693.77,126.6 684.375,126.485 C666.31,126.485 654.9,114.12 654.9,96.485 C654.9,78.865 667.385,65.33 684.375,65.33 Z M684.375,75.525 C675.39,75.155 667.775,82.01 667.17,90.975 L700.43,90.975 C700.725,82.09 693.24,74.9 684.375,75.525 Z" id="e" fill="#FFFFFF"></path>
    </g>
</svg>